<svg width="11" height="20" viewBox="0 0 11 20" fill="none" xmlns="http://www.w3.org/2000/svg">
<path id="Vector" d="M2.04263 9.99991L10.5346 1.27291C10.6045 1.20258 10.6598 1.11908 10.6973 1.02725C10.7347 0.935419 10.7535 0.837075 10.7527 0.73791C10.7519 0.638745 10.7314 0.540728 10.6925 0.449531C10.6535 0.358334 10.5968 0.275767 10.5258 0.20661C10.4547 0.137452 10.3706 0.0830768 10.2784 0.04663C10.1862 0.0101833 10.0876 -0.00761119 9.98847 -0.00572347C9.88932 -0.00383576 9.79152 0.0176966 9.70075 0.0576276C9.60998 0.0975585 9.52802 0.155095 9.45963 0.226908L0.459632 9.47691C0.32341 9.61692 0.247192 9.80456 0.247192 9.99991C0.247192 10.1953 0.32341 10.3829 0.459632 10.5229L9.45963 19.7729C9.52802 19.8447 9.60998 19.9023 9.70075 19.9422C9.79152 19.9821 9.88932 20.0037 9.98847 20.0055C10.0876 20.0074 10.1862 19.9896 10.2784 19.9532C10.3706 19.9167 10.4547 19.8624 10.5258 19.7932C10.5968 19.724 10.6535 19.6415 10.6925 19.5503C10.7314 19.4591 10.7519 19.3611 10.7527 19.2619C10.7535 19.1627 10.7347 19.0644 10.6973 18.9726C10.6598 18.8807 10.6045 18.7972 10.5346 18.7269L2.04263 9.99991Z" fill="#868686"/>
</svg>
