<svg xmlns="http://www.w3.org/2000/svg" width="40" height="41" viewBox="0 0 40 41" fill="none">
    <path d="M20 0.5C18.1435 0.5 16.363 1.42187 15.0503 3.06282C13.7375 4.70376 13 6.92936 13 9.25H17C17 8.25544 17.3161 7.30161 17.8787 6.59835C18.4413 5.89509 19.2044 5.5 20 5.5C20.7956 5.5 21.5587 5.89509 22.1213 6.59835C22.6839 7.30161 23 8.25544 23 9.25C23 10.2446 22.6839 11.1984 22.1213 11.9017C21.5587 12.6049 20.7956 13 20 13C18.9 13 18 14.125 18 15.5V19.875L0.8 36C0.464188 36.3148 0.216133 36.7537 0.0909729 37.2546C-0.0341874 37.7554 -0.0301079 38.2928 0.102633 38.7906C0.235375 39.2883 0.490048 39.7213 0.830579 40.0281C1.17111 40.3349 1.58024 40.5 2 40.5H38C38.4198 40.5 38.8289 40.3349 39.1694 40.0281C39.51 39.7213 39.7646 39.2883 39.8974 38.7906C40.0301 38.2928 40.0342 37.7554 39.909 37.2546C39.7839 36.7537 39.5358 36.3148 39.2 36L22 19.875V17.625C23.4433 17.0871 24.7093 15.9817 25.61 14.473C26.5108 12.9642 26.9982 11.1326 27 9.25C27 6.92936 26.2625 4.70376 24.9497 3.06282C23.637 1.42187 21.8565 0.5 20 0.5ZM20 24.25L32 35.5H8L20 24.25Z" fill="#FFD233"/>
</svg>