<svg xmlns="http://www.w3.org/2000/svg" width="40" height="41" viewBox="0 0 40 41" fill="none">
    <path d="M2.22222 0.5C2.81159 0.5 3.37682 0.65051 3.79357 0.918419C4.21032 1.18633 4.44444 1.54969 4.44444 1.92857V10.5C4.44372 11.3866 4.87079 12.2516 5.66679 12.9757C6.46279 13.6998 7.58854 14.2473 8.88889 14.5429V1.92857C8.88889 1.54969 9.12302 1.18633 9.53976 0.918419C9.95651 0.65051 10.5217 0.5 11.1111 0.5C11.7005 0.5 12.2657 0.65051 12.6825 0.918419C13.0992 1.18633 13.3333 1.54969 13.3333 1.92857V14.5429C14.6337 14.2473 15.7594 13.6998 16.5554 12.9757C17.3514 12.2516 17.7785 11.3866 17.7778 10.5V1.92857C17.7778 1.54969 18.0119 1.18633 18.4287 0.918419C18.8454 0.65051 19.4106 0.5 20 0.5C20.5894 0.5 21.1546 0.65051 21.5713 0.918419C21.9881 1.18633 22.2222 1.54969 22.2222 1.92857V10.5C22.2227 12.1466 21.3383 13.7428 19.7185 15.0184C18.0987 16.294 15.843 17.1707 13.3333 17.5V39.0714C13.3333 39.4503 13.0992 39.8137 12.6825 40.0816C12.2657 40.3495 11.7005 40.5 11.1111 40.5C10.5217 40.5 9.95651 40.3495 9.53976 40.0816C9.12302 39.8137 8.88889 39.4503 8.88889 39.0714V17.5C6.37919 17.1707 4.12357 16.294 2.50376 15.0184C0.883963 13.7428 -0.000522557 12.1466 2.31619e-07 10.5V1.92857C2.31619e-07 1.54969 0.234127 1.18633 0.650874 0.918419C1.06762 0.65051 1.63285 0.5 2.22222 0.5ZM33.24 4.72571C33.9467 4.26857 34.7422 3.91714 35.5556 3.68571V17.6429H31.1111V7.64286C31.1111 6.68 31.8844 5.59429 33.24 4.72571ZM35.5556 20.5V39.0714C35.5556 39.4503 35.7897 39.8137 36.2064 40.0816C36.6232 40.3495 37.1884 40.5 37.7778 40.5C38.3671 40.5 38.9324 40.3495 39.3491 40.0816C39.7659 39.8137 40 39.4503 40 39.0714V1.92857C40 1.54969 39.7659 1.18633 39.3491 0.918419C38.9324 0.65051 38.3671 0.5 37.7778 0.5C34.8311 0.5 32.0756 1.43143 30.0933 2.70286C28.1156 3.97714 26.6667 5.74857 26.6667 7.64286V19.0714C26.6667 19.4503 26.9008 19.8137 27.3175 20.0816C27.7343 20.3495 28.2995 20.5 28.8889 20.5H35.5556Z" fill="#FF82A0"/>
</svg>