<svg width="11" height="20" viewBox="0 0 11 20" fill="none" xmlns="http://www.w3.org/2000/svg">
<path id="Vector" d="M8.95737 10.0001L0.465368 18.7271C0.395452 18.7974 0.340178 18.8809 0.302744 18.9727C0.26531 19.0646 0.246458 19.1629 0.247282 19.2621C0.248106 19.3613 0.268588 19.4593 0.307543 19.5505C0.346498 19.6417 0.403151 19.7242 0.474226 19.7934C0.545301 19.8625 0.629385 19.9169 0.721613 19.9534C0.813841 19.9898 0.912383 20.0076 1.01153 20.0057C1.11068 20.0038 1.20848 19.9823 1.29925 19.9424C1.39002 19.9024 1.47198 19.8449 1.54037 19.7731L10.5404 10.5231C10.6766 10.3831 10.7528 10.1954 10.7528 10.0001C10.7528 9.80475 10.6766 9.61711 10.5404 9.47709L1.54037 0.227091C1.47198 0.155278 1.39002 0.0977427 1.29925 0.0578117C1.20848 0.0178808 1.11068 -0.00365123 1.01153 -0.00553894C0.912383 -0.00742665 0.813841 0.0103672 0.721613 0.046814C0.629385 0.0832607 0.545301 0.137635 0.474226 0.206793C0.403151 0.27595 0.346498 0.358517 0.307543 0.449715C0.268588 0.540912 0.248106 0.638929 0.247282 0.738094C0.246458 0.837259 0.26531 0.935604 0.302744 1.02744C0.340178 1.11927 0.395452 1.20276 0.465368 1.27309L8.95737 10.0001Z" fill="#868686"/>
</svg>
