<svg width="15" height="15" viewBox="0 0 15 15" fill="none" xmlns="http://www.w3.org/2000/svg">
<rect width="15" height="15" fill="#D9D9D9"/>
<g id="&#235;&#161;&#175;&#235;&#147;&#156;+ &#236;&#131;&#129;&#236;&#132;&#184; &#237;&#142;&#152;&#236;&#157;&#180;&#236;&#167;&#128; - &#236;&#167;&#128;&#236;&#167;&#128;&#236;&#132;&#156;&#235;&#170;&#133;">
<rect width="1445" height="1639" transform="translate(-739 -353)" fill="white"/>
<g id="&#236;&#167;&#128;&#236;&#167;&#128;&#236;&#132;&#156;&#235;&#170;&#133; &#236;&#152;&#129;&#236;&#151;&#173;">
<g id="&#236;&#167;&#128;&#236;&#167;&#128;&#236;&#132;&#156;&#235;&#170;&#133;">
<g id="&#236;&#167;&#128;&#236;&#167;&#128;&#236;&#132;&#156;&#235;&#170;&#133; &#237;&#149;&#156;&#235;&#170;&#133; ">
<g id="Frame 159">
<g id="Frame 499">
<g id="Group">
<path id="Vector" d="M8 9.50287L5 10.0429L5.5 7.00287L11.23 1.29287C11.323 1.19914 11.4336 1.12475 11.5554 1.07398C11.6773 1.02321 11.808 0.99707 11.94 0.99707C12.072 0.99707 12.2027 1.02321 12.3246 1.07398C12.4464 1.12475 12.557 1.19914 12.65 1.29287L13.71 2.35287C13.8037 2.44583 13.8781 2.55643 13.9289 2.67829C13.9797 2.80015 14.0058 2.93086 14.0058 3.06287C14.0058 3.19488 13.9797 3.32559 13.9289 3.44745C13.8781 3.5693 13.8037 3.67991 13.71 3.77287L8 9.50287Z" stroke="black" stroke-linecap="round" stroke-linejoin="round"/>
<path id="Vector_2" d="M12.5 10.0029V13.0029C12.5 13.2681 12.3946 13.5225 12.2071 13.71C12.0196 13.8976 11.7652 14.0029 11.5 14.0029H2C1.73478 14.0029 1.48043 13.8976 1.29289 13.71C1.10536 13.5225 1 13.2681 1 13.0029V3.50293C1 3.23771 1.10536 2.98336 1.29289 2.79582C1.48043 2.60829 1.73478 2.50293 2 2.50293H5" stroke="black" stroke-linecap="round" stroke-linejoin="round"/>
</g>
</g>
</g>
</g>
</g>
</g>
</g>
</svg>
