<svg width="35" height="36" viewBox="0 0 35 36" fill="none" xmlns="http://www.w3.org/2000/svg">
<path id="Vector" d="M13.8951 2.68706C14.1856 2.04087 14.6839 1.48748 15.3262 1.09783C15.9685 0.708169 16.7254 0.5 17.5 0.5C18.2746 0.5 19.0315 0.708169 19.6738 1.09783C20.3161 1.48748 20.8144 2.04087 21.1049 2.68706C23.9802 3.39868 26.5165 4.94004 28.3241 7.07443C30.1317 9.20882 31.1108 11.8182 31.1109 14.5018V22.7207L34.673 27.5292C34.8684 27.7927 34.9806 28.099 34.9977 28.4154C35.0148 28.7319 34.9361 29.0465 34.77 29.3258C34.604 29.6052 34.3567 29.8387 34.0547 30.0015C33.7528 30.1642 33.4073 30.2502 33.0553 30.2502H24.2374C24.0033 31.7079 23.1934 33.041 21.956 34.0052C20.7187 34.9693 19.1367 35.5 17.5 35.5C15.8633 35.5 14.2813 34.9693 13.044 34.0052C11.8066 33.041 10.9967 31.7079 10.7626 30.2502H1.9447C1.59268 30.2502 1.24725 30.1642 0.945258 30.0015C0.643267 29.8387 0.396048 29.6052 0.229977 29.3258C0.063905 29.0465 -0.0147887 28.7319 0.00229022 28.4154C0.0193692 28.099 0.13158 27.7927 0.326952 27.5292L3.88912 22.7207V14.5018C3.88912 8.8604 8.12793 4.10791 13.8951 2.68706ZM14.7506 30.2502C14.9514 30.7622 15.3238 31.2057 15.8164 31.5193C16.309 31.833 16.8975 32.0014 17.501 32.0014C18.1044 32.0014 18.693 31.833 19.1856 31.5193C19.6782 31.2057 20.0505 30.7622 20.2513 30.2502H14.7487H14.7506ZM17.5 5.75273C14.9215 5.75273 12.4487 6.67451 10.6255 8.31528C8.80222 9.95605 7.77794 12.1814 7.77794 14.5018V23.2509C7.77803 23.5965 7.66436 23.9345 7.45128 24.222L5.57881 26.7505H29.4192L27.5468 24.222C27.3344 23.9343 27.2214 23.5964 27.2221 23.2509V14.5018C27.2221 12.1814 26.1978 9.95605 24.3745 8.31528C22.5513 6.67451 20.0784 5.75273 17.5 5.75273Z" fill="black" fill-opacity="0.8"/>
</svg>
