<svg width="29" height="28" viewBox="0 0 29 28" fill="none" xmlns="http://www.w3.org/2000/svg">
<g id="solar:letter-broken">
<g id="Group">
<path id="Vector" d="M26.5833 14.0003C26.5833 18.3998 26.5833 20.6002 25.1672 21.9663C23.7522 23.3337 21.4733 23.3337 16.9167 23.3337H12.0833C7.5267 23.3337 5.24778 23.3337 3.83282 21.9663C2.41666 20.6002 2.41666 18.3998 2.41666 14.0003C2.41666 9.60083 2.41666 7.40049 3.83282 6.03433C5.24778 4.66699 7.5267 4.66699 12.0833 4.66699H16.9167C21.4733 4.66699 23.7522 4.66699 25.1672 6.03433C25.9574 6.79616 26.3066 7.81699 26.4601 9.33366" stroke="#383838" stroke-width="1.5" stroke-linecap="round"/>
<path id="Vector_2" d="M21.75 9.33398L19.1412 11.434C16.9227 13.219 15.8123 14.1115 14.5 14.1115C13.7146 14.1115 13.0029 13.7918 12.0833 13.1548M7.25 9.33398L8.3375 10.209L9.425 11.084" stroke="#383838" stroke-width="1.5" stroke-linecap="round"/>
</g>
</g>
</svg>
