<svg xmlns="http://www.w3.org/2000/svg" width="40" height="51" viewBox="0 0 40 51" fill="none">
    <path d="M24.1667 45.5C24.1667 44.6406 23.7587 43.9049 22.9427 43.293C22.1267 42.681 21.1458 42.375 20 42.375C18.8542 42.375 17.8733 42.681 17.0573 43.293C16.2413 43.9049 15.8333 44.6406 15.8333 45.5C15.8333 46.3594 16.2413 47.0951 17.0573 47.707C17.8733 48.319 18.8542 48.625 20 48.625C21.1458 48.625 22.1267 48.319 22.9427 47.707C23.7587 47.0951 24.1667 46.3594 24.1667 45.5ZM35 39.25V11.75C35 11.4115 34.8351 11.1185 34.5052 10.8711C34.1753 10.6237 33.7847 10.5 33.3333 10.5H6.66667C6.21528 10.5 5.82465 10.6237 5.49479 10.8711C5.16493 11.1185 5 11.4115 5 11.75V39.25C5 39.5885 5.16493 39.8815 5.49479 40.1289C5.82465 40.3763 6.21528 40.5 6.66667 40.5H33.3333C33.7847 40.5 34.1753 40.3763 34.5052 40.1289C34.8351 39.8815 35 39.5885 35 39.25ZM25 6.125C25 5.70833 24.7222 5.5 24.1667 5.5H15.8333C15.2778 5.5 15 5.70833 15 6.125C15 6.54167 15.2778 6.75 15.8333 6.75H24.1667C24.7222 6.75 25 6.54167 25 6.125ZM40 5.5V45.5C40 46.8542 39.3403 48.026 38.0208 49.0156C36.7014 50.0052 35.1389 50.5 33.3333 50.5H6.66667C4.86111 50.5 3.29861 50.0052 1.97917 49.0156C0.659722 48.026 0 46.8542 0 45.5V5.5C0 4.14583 0.659722 2.97396 1.97917 1.98438C3.29861 0.994792 4.86111 0.5 6.66667 0.5H33.3333C35.1389 0.5 36.7014 0.994792 38.0208 1.98438C39.3403 2.97396 40 4.14583 40 5.5Z" fill="#85B6FF"/>
</svg>